# xmcd
#
# Track frame offsets:
# 150
# 37056
# 68871
# 83147
# 116220
# 138057
# 169671
# 202281
# 222536
# 246042
# 263424
#
# Disc length: 3892 seconds
#
#
# Revision: 0
# Processed by: cddbd v1.5.1PL2 Copyright (c) Steve Scherf et al.
# Submitted via: FreeRIP 2.944 
#
DISCID=a30f320b
DTITLE=JP and Ms. B - BLUES AND BEYOND
DYEAR=2006
DGENRE=R&B
TTITLE0=Dr Feelgood
TTITLE1=Sangin' The Blues
TTITLE2=Hendrix Runnin'
TTITLE3=Hummin' The Blues
TTITLE4=Birds Of A Feather
TTITLE5=F# Song (I Don't Want U No Mo)
TTITLE6=Little Help From My Friends
TTITLE7=Funky Riff
TTITLE8=Jimi Said
TTITLE9=Villanova Junction
TTITLE10=Red House (JP Live With Buddy Miles)
EXTD=
EXTT0=
EXTT1=
EXTT2=
EXTT3=
EXTT4=
EXTT5=
EXTT6=
EXTT7=
EXTT8=
EXTT9=
EXTT10=
PLAYORDER=
